<?xml version="1.0" encoding="UTF-8"?>
<svg xmlns="http://www.w3.org/2000/svg" xmlns:xlink="http://www.w3.org/1999/xlink" width="40px" height="40px" viewBox="0 0 40 40" version="1.1">
<g id="surface1">
<path style="fill-rule:nonzero;fill:rgb(99.607843%,1.960784%,1.960784%);fill-opacity:1;stroke-width:1;stroke-linecap:butt;stroke-linejoin:miter;stroke:rgb(0%,0%,0%);stroke-opacity:1;stroke-miterlimit:4;" d="M 26.425 16.45625 C 26.425 22.4875 21.534375 27.38125 15.5 27.38125 C 9.465625 27.38125 4.575 22.4875 4.575 16.45625 C 4.575 10.421875 9.465625 5.53125 15.5 5.53125 C 21.534375 5.53125 26.425 10.421875 26.425 16.45625 Z M 26.425 16.45625 " transform="matrix(1.25,0,0,1.25,0,0)"/>
<path style="fill-rule:evenodd;fill:rgb(100%,100%,100%);fill-opacity:1;stroke-width:1;stroke-linecap:butt;stroke-linejoin:miter;stroke:rgb(0%,0%,0%);stroke-opacity:1;stroke-miterlimit:4;" d="M 26.24375 17.16875 C 25.221875 17.9125 24.2625 18.415625 22.9625 18.925 C 18.225 20.765625 12.396875 20.740625 7.690625 18.865625 C 6.5625 18.409375 5.571875 17.875 4.65 17.2375 C 5.0375 22.990625 9.76875 27.446875 15.534375 27.446875 C 22.025 27.190625 25.85625 22.084375 26.24375 17.16875 Z M 26.24375 17.16875 " transform="matrix(1.25,0,0,1.25,0,0)"/>
<path style=" stroke:none;fill-rule:evenodd;fill:rgb(0%,0%,0%);fill-opacity:1;" d="M 32.746094 19.972656 L 32.109375 20.480469 C 30.933594 21.332031 29.824219 21.875 28.25 22.492188 C 22.65625 24.664062 15.636719 24.636719 10.082031 22.421875 L 10.078125 22.421875 C 8.957031 21.976562 7.882812 21.421875 6.867188 20.773438 C 6.839844 20.753906 6.660156 20.605469 6.421875 20.445312 L 5.371094 22.234375 C 5.421875 22.265625 5.238281 22.699219 5.507812 22.871094 C 6.621094 23.589844 7.84375 24.21875 9.148438 24.742188 L 9.152344 24.742188 C 15.359375 27.21875 22.90625 27.246094 29.15625 24.820312 L 29.160156 24.820312 C 30.832031 24.164062 32.199219 23.503906 33.582031 22.5 L 33.535156 22.277344 L 33.375 21.214844 Z M 32.746094 19.972656 "/>
<path style="fill-rule:nonzero;fill:rgb(100%,100%,100%);fill-opacity:1;stroke-width:1;stroke-linecap:butt;stroke-linejoin:miter;stroke:rgb(0%,0%,0%);stroke-opacity:1;stroke-miterlimit:4;" d="M 17.975 19.690625 C 17.975 21.015625 16.9 22.090625 15.575 22.090625 C 14.25 22.090625 13.175 21.015625 13.175 19.690625 C 13.175 18.365625 14.25 17.290625 15.575 17.290625 C 16.9 17.290625 17.975 18.365625 17.975 19.690625 Z M 17.975 19.690625 " transform="matrix(1.25,0,0,1.25,0,0)"/>
</g>
</svg>
