<?xml version="1.0" encoding="UTF-8"?>
<svg xmlns="http://www.w3.org/2000/svg" xmlns:xlink="http://www.w3.org/1999/xlink" width="40px" height="40px" viewBox="0 0 40 40" version="1.1">
<g id="surface1">
<path style=" stroke:none;fill-rule:nonzero;fill:rgb(21.568627%,27.843137%,30.980392%);fill-opacity:1;" d="M 27.5 22.5 L 32.5 22.5 C 35.261719 22.5 37.5 24.738281 37.5 27.5 C 37.5 30.261719 35.261719 32.5 32.5 32.5 L 27.5 32.5 Z M 27.5 22.5 "/>
<path style=" stroke:none;fill-rule:nonzero;fill:rgb(32.941176%,43.137255%,47.843137%);fill-opacity:1;" d="M 35.832031 27.5 C 35.832031 29.339844 34.339844 30.832031 32.5 30.832031 C 30.660156 30.832031 29.167969 29.339844 29.167969 27.5 C 29.167969 25.660156 30.660156 24.167969 32.5 24.167969 C 34.339844 24.167969 35.832031 25.660156 35.832031 27.5 Z M 35.832031 27.5 "/>
<path style=" stroke:none;fill-rule:nonzero;fill:rgb(32.941176%,43.137255%,47.843137%);fill-opacity:1;" d="M 9.167969 20.835938 C 5.484375 20.835938 2.5 23.820312 2.5 27.5 C 2.5 31.183594 5.484375 34.167969 9.167969 34.167969 Z M 9.167969 20.835938 "/>
<path style=" stroke:none;fill-rule:nonzero;fill:rgb(86.666667%,17.254902%,0%);fill-opacity:1;" d="M 10.832031 19.167969 L 26.667969 19.167969 L 26.667969 20.832031 L 10.832031 20.832031 Z M 10.832031 19.167969 "/>
<path style=" stroke:none;fill-rule:nonzero;fill:rgb(100%,23.921569%,0%);fill-opacity:1;" d="M 9.167969 20.835938 L 9.167969 34.167969 C 9.167969 34.167969 23.613281 34.167969 25.832031 34.167969 C 28.332031 34.167969 28.332031 31.667969 28.332031 31.667969 L 28.332031 20.835938 Z M 9.167969 20.835938 "/>
<path style=" stroke:none;fill-rule:nonzero;fill:rgb(100%,23.921569%,0%);fill-opacity:1;" d="M 25.832031 5.832031 C 23.332031 5.832031 14.167969 5.832031 11.667969 5.832031 C 9.167969 5.832031 9.167969 8.332031 9.167969 8.332031 L 9.167969 19.167969 L 28.332031 19.167969 L 28.332031 8.332031 C 28.332031 8.332031 28.332031 5.832031 25.832031 5.832031 Z M 25.832031 5.832031 "/>
<path style=" stroke:none;fill-rule:nonzero;fill:rgb(14.901961%,19.607843%,21.960784%);fill-opacity:1;" d="M 19.167969 23.332031 L 9.148438 23.332031 C 6.882812 23.332031 5.046875 25.234375 5.046875 27.5 C 5.046875 29.765625 6.882812 31.667969 9.148438 31.667969 L 19.167969 31.667969 Z M 19.167969 23.332031 "/>
<path style=" stroke:none;fill-rule:nonzero;fill:rgb(14.901961%,19.607843%,21.960784%);fill-opacity:1;" d="M 24.167969 15.832031 C 24.167969 16.292969 23.792969 16.667969 23.332031 16.667969 L 12.5 16.667969 C 12.039062 16.667969 11.667969 16.292969 11.667969 15.832031 L 11.667969 9.167969 C 11.667969 8.707031 12.039062 8.332031 12.5 8.332031 L 23.332031 8.332031 C 23.792969 8.332031 24.167969 8.707031 24.167969 9.167969 Z M 24.167969 15.832031 "/>
<path style=" stroke:none;fill-rule:nonzero;fill:rgb(56.470588%,64.313725%,68.235294%);fill-opacity:1;" d="M 25.832031 31.667969 C 25.832031 32.125 25.460938 32.5 25 32.5 L 15 32.5 C 14.539062 32.5 14.167969 32.125 14.167969 31.667969 L 14.167969 23.332031 C 14.167969 22.875 14.539062 22.5 15 22.5 L 25 22.5 C 25.460938 22.5 25.832031 22.875 25.832031 23.332031 Z M 25.832031 31.667969 "/>
<path style=" stroke:none;fill-rule:nonzero;fill:rgb(56.470588%,64.313725%,68.235294%);fill-opacity:1;" d="M 25.832031 16.667969 C 25.832031 17.125 25.460938 17.5 25 17.5 L 15 17.5 C 14.539062 17.5 14.167969 17.125 14.167969 16.667969 L 14.167969 8.332031 C 14.167969 7.875 14.539062 7.5 15 7.5 L 25 7.5 C 25.460938 7.5 25.832031 7.875 25.832031 8.332031 Z M 25.832031 16.667969 "/>
<path style=" stroke:none;fill-rule:nonzero;fill:rgb(73.333333%,87.058824%,98.431373%);fill-opacity:1;" d="M 15.832031 9.167969 L 24.167969 9.167969 L 24.167969 15.832031 L 15.832031 15.832031 Z M 15.832031 9.167969 "/>
<path style=" stroke:none;fill-rule:nonzero;fill:rgb(73.333333%,87.058824%,98.431373%);fill-opacity:1;" d="M 15.832031 24.167969 L 24.167969 24.167969 L 24.167969 30.832031 L 15.832031 30.832031 Z M 15.832031 24.167969 "/>
<path style=" stroke:none;fill-rule:nonzero;fill:rgb(92.54902%,93.72549%,94.509804%);fill-opacity:1;" d="M 9.167969 25 L 10.832031 25 L 10.832031 30 L 9.167969 30 Z M 9.167969 25 "/>
<path style=" stroke:none;fill-rule:nonzero;fill:rgb(92.54902%,93.72549%,94.509804%);fill-opacity:1;" d="M 7.5 26.667969 L 12.5 26.667969 L 12.5 28.332031 L 7.5 28.332031 Z M 7.5 26.667969 "/>
<path style=" stroke:none;fill-rule:nonzero;fill:rgb(68.235294%,91.764706%,0%);fill-opacity:1;" d="M 34.167969 27.5 C 34.167969 28.421875 33.421875 29.167969 32.5 29.167969 C 31.578125 29.167969 30.832031 28.421875 30.832031 27.5 C 30.832031 26.578125 31.578125 25.832031 32.5 25.832031 C 33.421875 25.832031 34.167969 26.578125 34.167969 27.5 Z M 34.167969 27.5 "/>
<path style=" stroke:none;fill-rule:nonzero;fill:rgb(68.235294%,91.764706%,0%);fill-opacity:1;" d="M 2.5 27.496094 C 2.5 27.496094 2.5 27.5 2.5 27.5 C 2.5 27.75 2.519531 27.996094 2.542969 28.242188 C 2.546875 28.273438 2.554688 28.300781 2.558594 28.332031 L 3.332031 28.332031 C 3.792969 28.332031 4.167969 27.960938 4.167969 27.5 C 4.167969 27.039062 3.792969 26.667969 3.332031 26.667969 L 2.558594 26.667969 C 2.554688 26.699219 2.546875 26.730469 2.542969 26.761719 C 2.519531 27.003906 2.5 27.246094 2.5 27.496094 Z M 2.5 27.496094 "/>
</g>
</svg>
